<?xml version="1.0" encoding="UTF-8"?>
<svg id="Layer_1" data-name="Layer 1" xmlns="http://www.w3.org/2000/svg" viewBox="0 0 346.16 70.12">
  <defs>
    <style>
      .cls-1 {
        fill: #fff;
      }
    </style>
  </defs>
  <path class="cls-1" d="M23.08,70.12c-7.07,0-12.69-1.93-16.84-5.79-4.16-3.86-6.24-9.26-6.24-16.2v-6.48h12.96v6.48c0,3.08.85,5.48,2.55,7.22,1.7,1.74,4.09,2.6,7.17,2.6,2.88,0,5.12-.85,6.73-2.55,1.6-1.7,2.41-4.12,2.41-7.27V11.78h-11.78V0h32.6v11.78h-7.86v36.33c0,7.14-1.93,12.59-5.79,16.35-3.86,3.76-9.17,5.65-15.91,5.65Z"/>
  <path class="cls-1" d="M79.64,68.74V11.78h-20.03V0h53.03v11.78h-20.03v56.96h-12.96Z"/>
  <path class="cls-1" d="M103.11,68.74L121.18,0h22.59l18.07,68.74h-13.36l-3.73-15.12h-24.55l-3.73,15.12h-13.36ZM123.24,41.64h18.46l-8.35-33.49h-1.77l-8.35,33.49Z"/>
  <path class="cls-1" d="M168.61,68.74V0h24.65l13.65,59.9h1.77V0h12.77v68.74h-24.65l-13.65-59.9h-1.77v59.9h-12.77Z"/>
  <path class="cls-1" d="M230.97,68.74v-11.39h9.03V11.39h-9.03V0h28.28c9.23,0,16.25,2.34,21.07,7.02,4.81,4.68,7.22,11.64,7.22,20.87v12.96c0,9.23-2.41,16.19-7.22,20.87-4.81,4.68-11.83,7.02-21.07,7.02h-28.28ZM252.97,56.96h6.48c5.24,0,9.07-1.38,11.49-4.12,2.42-2.75,3.63-6.61,3.63-11.59v-13.75c0-5.04-1.21-8.92-3.63-11.64-2.42-2.72-6.25-4.08-11.49-4.08h-6.48v45.17Z"/>
  <path class="cls-1" d="M309.83,68.74v-23.67L286.46,0h14.44l14.53,29.46h1.77l14.54-29.46h14.44l-23.37,45.08v23.67h-12.96Z"/>
</svg>